{"title":"The Back-Up Plan.2010.DvDrip.H264.FEEL-FREE","uid":5702588,"size":728487308,"categoryP":"video","categoryS":"movies","magnet":"?xt=urn:btih:c52d374e6ba6ff2266126f4bb71add3fff3a68bd&amp;dn=The+Back-Up+Plan.2010.DvDrip.H264.FEEL-FREE&amp;tr=udp%3A%2F%2Ftracker.openbittorrent.com%3A80&amp;tr=udp%3A%2F%2Fopen.demonii.com%3A1337&amp;tr=udp%3A%2F%2Ftracker.coppersurfer.tk%3A6969&amp;tr=udp%3A%2F%2Fexodus.desync.com%3A6969","seeders":0,"leechers":1,"uploader":"hiest","files":8,"time":1279562381,"description":"Genre:Comedy | Romance \nLanguage:English\nIMDb:http://www.imdb.com/title/tt1212436/\nSubtitles: ROMANA\nSource:DVD\nEncoder: Tony2\n........................................\nGeneral\nComplete name : The Back-Up Plan.2010.DvDrip.H264.FEEL-FREE\nFormat : MPEG-4\nFormat profile : Base Media\nCodec ID : isom\nFile size : 694 MiB\nDuration : 1h 44mn\nOverall bit rate : 931 Kbps\n............................................\n\nVideo\nID : 1\nFormat : AVC\nFormat/Info : Advanced Video Codec\nFormat profile : &lt;a class=&quot;__cf_email__&quot; href=&quot;/cdn-cgi/l/email-protection&quot; data-cfemail=&quot;1f527e76715f532e312c&quot;&gt;[email&amp;#160;protected]&lt;/a&gt;&lt;script cf-hash='f9e31' type=&quot;text/javascript&quot;&gt;\n/* &lt;![CDATA[ */!function(){try{var t=&quot;currentScript&quot;in document?document.currentScript:function(){for(var t=document.getElementsByTagName(&quot;script&quot;),e=t.length;e--;)if(t[e].getAttribute(&quot;cf-hash&quot;))return t[e]}();if(t&amp;&amp;t.previousSibling){var e,r,n,i,c=t.previousSibling,a=c.getAttribute(&quot;data-cfemail&quot;);if(a){for(e=&quot;&quot;,r=parseInt(a.substr(0,2),16),n=2;a.length-n;n+=2)i=parseInt(a.substr(n,2),16)^r,e+=String.fromCharCode(i);e=document.createTextNode(e),c.parentNode.replaceChild(e,c)}}}catch(u){}}();/* ]]&gt; */&lt;/script&gt;\nFormat settings, CABAC : Yes\nFormat settings, ReFrames : 1 frame\nCodec ID : avc1\nCodec ID/Info : Advanced Video Coding\nDuration : 1h 44mn\nBit rate mode : Variable\nBit rate : 774 Kbps\nWidth : 720 pixels\nHeight : 304 pixels\nDisplay aspect ratio : 2.35:1\nFrame rate mode : Constant\nFrame rate : 29.970 fps\nResolution : 24 bits\nColorimetry : 4:2:0\nScan type : Progressive\nBits/(Pixel*Frame) : 0.118\nStream size : 577 MiB (83%)\n.............................................\n\nAudio\nID : 2\nFormat : AAC\nFormat/Info : Advanced Audio Codec\nFormat version : Version 4\nFormat profile : LC\nFormat settings, SBR : No\nCodec ID : 40\nDuration : 1h 44mn\nBit rate mode : Variable\nBit rate : 152 Kbps\nChannel(s) : 2 channels\nChannel positions : L R\nSampling rate : 44.1 KHz\nResolution : 16 bits\nStream size : 113 MiB (16%)\n.............................................\nPlot:\nA romantic comedy centered on a woman who conceives twins through artificial insemination, only to meet the man of her dreams on the very same day\n...................................................","torrent":{"xt":"urn:btih:c52d374e6ba6ff2266126f4bb71add3fff3a68bd","amp;dn":"The+Back-Up+Plan.2010.DvDrip.H264.FEEL-FREE","amp;tr":["udp%3A%2F%2Ftracker.openbittorrent.com%3A80","udp%3A%2F%2Fopen.demonii.com%3A1337","udp%3A%2F%2Ftracker.coppersurfer.tk%3A6969","udp%3A%2F%2Fexodus.desync.com%3A6969"],"infoHash":"c52d374e6ba6ff2266126f4bb71add3fff3a68bd","infoHashBuffer":{"type":"Buffer","data":[197,45,55,78,107,166,255,34,102,18,111,75,183,26,221,63,255,58,104,189]},"announce":[],"urlList":[]}}